# xmcd
#
# Track frame offsets: 
#        150
#        32432
#        50489
#        74663
#        145799
#        178465
#        213172
#        251333
#        277078
#        301288
#
# Disc length: 4759 seconds
#
# Revision: 0
# Processed by: cddbd v1.5.2PL0 Copyright (c) Steve Scherf et al.
# Submitted via: ExactAudioCopyFreeDBPlugin 1.0
#
DISCID=9612950a
DTITLE=Karizma - All The Way Live
DYEAR=1987
DGENRE=Fusion
TTITLE0=Tink
TTITLE1=Jive
TTITLE2=Dream Come True
TTITLE3=Kimbisa - Cuba
TTITLE4=Sting
TTITLE5=Corbitt Van Brauer
TTITLE6=Donna
TTITLE7=Prelude For Dad
TTITLE8=Juliamy
TTITLE9=T. J.
EXTD=
EXTT0=
EXTT1=
EXTT2=
EXTT3=
EXTT4=
EXTT5=
EXTT6=
EXTT7=
EXTT8=
EXTT9=
PLAYORDER=
